<?xml version="1.0" encoding="UTF-8" standalone="no"?>
<!-- Generator: Adobe Illustrator 17.0.0, SVG Export Plug-In . SVG Version: 6.00 Build 0)  -->

<svg
   xmlns:dc="http://purl.org/dc/elements/1.1/"
   xmlns:cc="http://creativecommons.org/ns#"
   xmlns:rdf="http://www.w3.org/1999/02/22-rdf-syntax-ns#"
   xmlns:svg="http://www.w3.org/2000/svg"
   xmlns="http://www.w3.org/2000/svg"
   xmlns:sodipodi="http://sodipodi.sourceforge.net/DTD/sodipodi-0.dtd"
   xmlns:inkscape="http://www.inkscape.org/namespaces/inkscape"
   version="1.1"
   id="Layer_1"
   x="0px"
   y="0px"
   width="100px"
   height="100px"
   viewBox="0 0 100 100"
   enable-background="new 0 0 100 100"
   xml:space="preserve"
   inkscape:version="0.91 r13725"
   sodipodi:docname="fi-play-list.svg"><metadata
     id="metadata3503"><rdf:RDF><cc:Work
         rdf:about=""><dc:format>image/svg+xml</dc:format><dc:type
           rdf:resource="http://purl.org/dc/dcmitype/StillImage" /></cc:Work></rdf:RDF></metadata><defs
     id="defs3501" /><sodipodi:namedview
     pagecolor="#ffffff"
     bordercolor="#666666"
     borderopacity="1"
     objecttolerance="10"
     gridtolerance="10"
     guidetolerance="10"
     inkscape:pageopacity="0"
     inkscape:pageshadow="2"
     inkscape:window-width="1680"
     inkscape:window-height="933"
     id="namedview3499"
     showgrid="false"
     inkscape:zoom="5.6494886"
     inkscape:cx="7.2516297"
     inkscape:cy="36.039113"
     inkscape:window-x="0"
     inkscape:window-y="551"
     inkscape:window-maximized="1"
     inkscape:current-layer="Layer_1" /><circle
     cx="50"
     cy="50"
     r="50"
     stroke="black"
     stroke-width="0"
     fill="lightgray"
     id="circle3493" /><g
     id="g3495"
     transform="matrix(0.7721197,0,0,0.94670845,17.644016,2.6650523)"><path
       d="m 76.982,50 c 0,-0.847 -0.474,-1.575 -1.167,-1.957 L 26.541,19.595 c -0.363,-0.253 -0.803,-0.404 -1.279,-0.404 -1.239,0 -2.244,1.004 -2.244,2.243 0,0.087 0.016,0.169 0.026,0.253 l -0.026,0 0,57.131 0.026,0 c 0.127,1.119 1.066,1.99 2.218,1.99 0.409,0 0.787,-0.117 1.117,-0.308 l 0.02,0.035 49.476,-28.565 -0.02,-0.035 C 76.526,51.547 76.982,50.83 76.982,50 Z"
       id="path3497"
       inkscape:connector-curvature="0" /></g><path
     style="fill:#333333"
     d="M 36.257672,78.715233 C 36.004511,78.516098 35.715427,78.058092 35.615263,77.697442 35.49411,77.261225 35.432815,67.962228 35.432159,49.91895 c -0.0011,-30.226677 -0.0787,-28.309707 1.167082,-28.830229 0.320218,-0.133795 0.722496,-0.189433 0.893953,-0.123639 0.619544,0.237742 38.74711,27.317632 39.092145,27.764977 0.243627,0.315869 0.354014,0.72999 0.354014,1.328093 0,0.759117 -0.07841,0.946275 -0.619525,1.478862 -0.517027,0.508872 -31.906218,22.839341 -37.132354,26.416191 -0.903328,0.618252 -1.828512,1.124094 -2.055963,1.124094 -0.227451,0 -0.620679,-0.16293 -0.873839,-0.362066 z"
     id="path3339"
     inkscape:connector-curvature="0" /></svg>