<?xml version="1.0" encoding="utf-8"?>
<!-- Generator: Adobe Illustrator 17.0.0, SVG Export Plug-In . SVG Version: 6.00 Build 0)  -->
<!DOCTYPE svg PUBLIC "-//W3C//DTD SVG 1.1//EN" "http://www.w3.org/Graphics/SVG/1.1/DTD/svg11.dtd">
<svg version="1.1" id="Layer_1" xmlns="http://www.w3.org/2000/svg" xmlns:xlink="http://www.w3.org/1999/xlink" x="0px" y="0px"
	 width="20px" height="20px" viewBox="0 0 100 100" enable-background="new 0 0 100 100" xml:space="preserve">
	<circle cx="50" cy="50" r="50" stroke="black" stroke-width="0" fill="#ffffff" />
<g transform="matrix(0.7721197,0,0,0.94670845,17.644016,2.6650523)">
	<path d="m 76.982,50 c 0,-0.847 -0.474,-1.575 -1.167,-1.957 L 26.541,19.595 c -0.363,-0.253 -0.803,-0.404 -1.279,-0.404 -1.239,0 -2.244,1.004 -2.244,2.243 0,0.087 0.016,0.169 0.026,0.253 l -0.026,0 0,57.131 0.026,0 c 0.127,1.119 1.066,1.99 2.218,1.99 0.409,0 0.787,-0.117 1.117,-0.308 l 0.02,0.035 49.476,-28.565 -0.02,-0.035 C 76.526,51.547 76.982,50.83 76.982,50 Z" fill="#30312c" />
</g>
</svg>
